<svg xmlns="http://www.w3.org/2000/svg" viewBox="0 0 80 80"><ellipse cx="40" cy="66" rx="30" ry="6" fill="#000" opacity=".15"/><path d="m8 48 14-25 28-9 21 21 2 21-21 12-33-3Z" fill="#8c9590" stroke="#535e5b" stroke-width="1.5"/><path d="m22 23 14 24 14-33Z" fill="#bec3b7"/><path d="m36 47 35-12-21-21Z" fill="#a6aea4"/><path d="m36 47 16 21 21-12-2-21Z" fill="#727f79"/><path d="m8 48 28-1-14-24Z" fill="#9da799"/><path d="m8 48 11 17 33 3-16-21Z" fill="#66736c"/><path d="m22 24 10 15m20-19 10 11" stroke="#d2d6c9" stroke-width="2" opacity=".7"/></svg>
